<svg width="263" height="72" viewBox="0 0 263 72" fill="none" xmlns="http://www.w3.org/2000/svg">
<g clip-path="url(#clip0_90_414)">
<path fill-rule="evenodd" clip-rule="evenodd" d="M150.602 46.4291V29.052C150.602 26.4319 149.64 24.6687 146.857 24.6687C144.343 24.6687 141.935 26.3259 139.635 28.7859V46.4291H134.874V29.052C134.874 26.4319 133.911 24.6687 131.129 24.6687C128.614 24.6687 126.207 26.3259 123.906 28.7859V46.4291H119.146V20.9263H122.944L123.533 24.6151C125.94 22.4229 128.828 20.3908 132.413 20.3908C136.158 20.3908 138.19 21.9951 139.154 24.6151C141.454 22.4229 144.558 20.3908 148.142 20.3908C153.009 20.3908 155.363 23.278 155.363 27.8767V46.4291H150.602Z" fill="#3C3F40"/>
<path fill-rule="evenodd" clip-rule="evenodd" d="M177.3 33.4899C167.883 34.3991 165.904 36.9656 165.904 39.5857C165.904 41.6708 167.295 43.0073 169.703 43.0073C172.484 43.0073 175.159 41.6172 177.3 39.425V33.4899ZM178.209 46.4291L177.673 43.0074C175.641 45.0931 172.859 46.9635 168.686 46.9635C164.085 46.9635 161.197 44.1839 161.197 39.853C161.197 33.49 166.653 30.977 177.3 29.8541V28.7853C177.3 25.5773 175.374 24.455 172.431 24.455C169.329 24.455 166.385 25.4167 163.604 26.6467L162.962 22.5305C166.012 21.2995 168.901 20.3908 172.859 20.3908C179.065 20.3908 182.061 22.9037 182.061 28.5717V46.4291H178.209Z" fill="#3C3F40"/>
<path fill-rule="evenodd" clip-rule="evenodd" d="M205.495 46.4291V29.052C205.495 26.4319 204.369 24.6687 201.588 24.6687C199.074 24.6687 196.506 26.3259 194.206 28.7859V46.4291H189.445V20.9263H193.243L193.832 24.6151C196.239 22.4229 199.235 20.3908 202.873 20.3908C207.687 20.3908 210.255 23.278 210.255 27.8767V46.4291H205.495Z" fill="#3C3F40"/>
<path fill-rule="evenodd" clip-rule="evenodd" d="M232.191 33.4899C222.775 34.3991 220.796 36.9656 220.796 39.5857C220.796 41.6708 222.186 43.0073 224.594 43.0073C227.376 43.0073 230.05 41.6172 232.191 39.425V33.4899ZM233.101 46.4291L232.564 43.0074C230.532 45.0931 227.75 46.9635 223.577 46.9635C218.976 46.9635 216.088 44.1839 216.088 39.853C216.088 33.49 221.545 30.977 232.191 29.8541V28.7853C232.191 25.5773 230.265 24.455 227.322 24.455C224.22 24.455 221.277 25.4167 218.495 26.6467L217.853 22.5305C220.903 21.2995 223.792 20.3908 227.75 20.3908C233.956 20.3908 236.952 22.9037 236.952 28.5717V46.4291H233.101Z" fill="#3C3F40"/>
<path fill-rule="evenodd" clip-rule="evenodd" d="M252.093 46.9632C248.724 46.9632 244.978 45.7879 242.785 44.5574L243.48 40.0664C245.887 41.7242 248.989 43.0072 252.468 43.0072C255.731 43.0072 257.656 41.7778 257.656 39.6385C257.656 37.2862 256.212 36.4311 251.611 35.3082C245.62 33.8116 243.213 31.9937 243.213 27.4486C243.213 23.3849 246.637 20.3905 252.2 20.3905C255.357 20.3905 258.192 21.0326 260.6 22.1014L259.85 26.5929C257.603 25.3094 254.768 24.4007 252.093 24.4007C249.205 24.4007 247.707 25.5236 247.707 27.3415C247.707 29.0523 248.989 30.0151 253.002 31.0309C259.316 32.6351 262.15 34.4525 262.15 39.3178C262.15 43.97 258.673 46.9632 252.093 46.9632Z" fill="#3C3F40"/>
<path fill-rule="evenodd" clip-rule="evenodd" d="M15.6174 11.373C14.9865 11.9932 14.2763 12.4756 13.4906 12.8232C12.7017 13.1718 11.875 13.3455 11.009 13.3455C10.0632 13.3455 9.1955 13.1718 8.40876 12.8232C7.61982 12.4756 6.91071 11.9932 6.28143 11.373C4.94139 10.0578 4.27274 8.5114 4.27274 6.73009C4.27274 4.87391 4.94139 3.28876 6.28143 1.973C6.91071 1.35391 7.61982 0.870332 8.40876 0.521719C9.1955 0.173653 10.0233 -0.000106812 10.8904 -0.000106812C11.8357 -0.000106812 12.7017 0.173653 13.4906 0.521719C14.2763 0.870332 14.9865 1.35391 15.6174 1.973C16.9558 3.28876 17.6261 4.83566 17.6261 6.61479C17.6261 8.47151 16.9558 10.0578 15.6174 11.373Z" fill="#0094AA"/>
<path fill-rule="evenodd" clip-rule="evenodd" d="M68.631 34.7399C68.631 32.7597 68.1707 31.2182 67.2626 30.1593C66.3708 29.1206 64.9286 28.5944 62.9767 28.5944C60.4372 28.5944 57.8216 29.3058 55.2017 30.7095C53.913 31.3527 52.6583 32.134 51.462 33.0389C50.3161 33.9061 49.1669 34.8759 48.0439 35.9272V71.9966H38.7248V34.7399C38.7248 33.6143 38.5996 32.669 38.3531 31.928C38.1163 31.2144 37.7549 30.6101 37.2809 30.1347C36.849 29.6451 36.3105 29.2725 35.6577 29.0053C34.9912 28.7331 34.088 28.5944 32.9716 28.5944C30.8836 28.5944 28.3911 29.2954 25.5601 30.6795L24.8914 31.0062L24.8707 30.2708L24.869 21.3817L25.1665 21.2462C27.6951 20.2697 30.4211 19.7752 33.2679 19.7752C36.5647 19.7752 39.5373 20.5948 42.1031 22.2144C43.7373 23.346 45.0888 24.8563 46.1391 26.7196C46.9581 26.0519 47.8558 25.417 48.8159 24.8246C49.941 24.1318 51.163 23.4209 52.4877 22.6925C56.2323 20.7544 59.7915 19.7752 63.0752 19.7752C65.2211 19.7752 67.2309 20.0807 69.0466 20.6872C70.8814 21.297 72.5024 22.2975 73.8665 23.6591C76.5767 26.3694 77.9512 29.8981 77.9512 34.1476V63.277H85.2549V71.9917L68.631 71.9999V34.7399Z" fill="#3C3F40"/>
<path fill-rule="evenodd" clip-rule="evenodd" d="M8.28349 71.9697V29.7111H-3.05176e-05V20.9805L17.5402 21.0247V71.9697H8.28349Z" fill="#3C3F40"/>
<path fill-rule="evenodd" clip-rule="evenodd" d="M92.9531 39.25H103.617V28.5927H92.9531V39.25Z" fill="#0094AA"/>
</g>
<defs>
<clipPath id="clip0_90_414">
<rect width="262.15" height="72" fill="white"/>
</clipPath>
</defs>
</svg>
